<svg xmlns="http://www.w3.org/2000/svg" id="a" width="700" height="600" viewBox="0 0 865.76 682.89">
  <g>
    <g>
      <path d="M176.3,335.34s4.93,5.7,12.93,7.7l16-54-15,2s-27.86,13.61-13.93,44.3Z" fill="#fbe493"/>
      <path d="M189.58,343.64l-.46-.12c-8.06-2.02-12.98-7.62-13.19-7.85l-.08-.12c-13.97-30.78,13.88-44.82,14.17-44.96l.15-.05,15.76-2.1-16.35,55.2Zm-12.85-8.57c.5,.56,5.08,5.44,12.16,7.37l15.64-52.8-14.15,1.89c-1.86,.93-26.93,14.18-13.65,43.54Z" fill="#002346"/>
    </g>
    <g>
      <g>
        <circle cx="299.26" cy="68.7" r="16.48" fill="#002346"/>
        <path d="M283.41,62.24c3.56-8.74,13.57-12.95,22.31-9.39s12.95,13.57,9.39,22.31c-3.56,8.74-13.57,12.95-22.31,9.39s-12.95-13.57-9.39-22.31Zm1.17,.48c-3.3,8.09,.6,17.36,8.7,20.65,8.09,3.3,17.36-.6,20.65-8.7s-.6-17.36-8.7-20.65-17.36,.6-20.65,8.7Z" fill="#0d2445"/>
      </g>
      <g>
        <circle cx="304.42" cy="81.69" r="12.68" fill="#f69074"/>
        <path d="M292.09,76.66c2.77-6.8,10.55-10.07,17.35-7.31,6.8,2.77,10.07,10.55,7.31,17.35-2.77,6.8-10.55,10.07-17.35,7.31-6.8-2.77-10.07-10.55-7.31-17.35Zm1.17,.48c-2.51,6.15,.46,13.19,6.61,15.7s13.19-.46,15.7-6.61-.46-13.19-6.61-15.7c-6.15-2.51-13.19,.46-15.7,6.61Z" fill="#002346"/>
      </g>
    </g>
    <g>
      <path d="M373.16,343.13l7.47-48.66c1.1-7.18,7.28-12.48,14.55-12.48h367.91c7.78,0,14.08,6.32,14.07,14.11,0,.71-.06,1.42-.16,2.12l-47.7,310.63L373.16,343.13Z" fill="#e6e7e8"/>
      <path d="M729.67,609.75l-.67-.5L372.62,343.35l.05-.3,7.47-48.66c1.15-7.48,7.47-12.9,15.03-12.9h367.92c8.04,0,14.58,6.56,14.57,14.61,0,.73-.06,1.47-.17,2.2l-47.83,311.45ZM373.7,342.91l355.23,265.04,47.57-309.81c.1-.68,.16-1.37,.16-2.05,0-7.49-6.08-13.6-13.57-13.61H395.17c-7.07,0-12.97,5.07-14.05,12.06l-7.42,48.36Z" fill="#0d2445"/>
    </g>
    <g>
      <path d="M324.39,628.68h390.61c7.89,0,14.29-6.39,14.3-14.28h0v-212.61c0-8.11-6.58-14.69-14.69-14.69-.02,0-.04,0-.06,0l-166.55,.57-13-39c-1.71-5.18-6.55-8.67-12-8.68h-185.15c-8.14,0-14.74,6.6-14.74,14.74,0,.02,0,.04,0,.06l1.28,273.89Z" fill="#fff"/>
      <path d="M715.01,629.18H323.89v-.5s-1.28-273.89-1.28-273.89c0-8.47,6.84-15.3,15.24-15.3h185.15c5.68,0,10.69,3.63,12.47,9.02l12.89,38.66,166.19-.57c8.44,0,15.25,6.81,15.25,15.19v212.6c0,3.96-1.54,7.67-4.34,10.47-2.79,2.79-6.5,4.32-10.45,4.32Zm-390.12-1h390.12c3.68,0,7.14-1.43,9.74-4.03,2.61-2.6,4.04-6.06,4.05-9.75v-212.61c0-7.82-6.37-14.19-14.19-14.19l-166.97,.57-13.11-39.34c-1.65-4.98-6.28-8.33-11.53-8.34h-185.15c-7.85,0-14.24,6.39-14.24,14.24l1.28,273.45Z" fill="#0d2445"/>
    </g>
    <g>
      <path d="M515.88,538.05v20.79h68.87c5.02,.04,10.01-.86,14.7-2.65,15.74-6.13,18.93-18.89,19-28,.04-7.31-2.22-14.44-6.45-20.4-16.61-23.32-47.23-4.76-47.23-4.76,.93-8.32-1.33-16.68-6.33-23.39-4.57-6.39-11.37-10.82-19.06-12.41-21.21-4.29-31.2,16.55-31.2,16.55,.08-6.47-.93-12.91-3-19.05-9-25.85-40.64-36.18-63.05-20.47-20.38,14.29-18.28,43-18.28,43-45.05-11.94-52,25.79-52,25.79-3.27,19.25,5.11,30.71,14.3,37.35,7.86,5.58,17.27,8.54,26.91,8.47h54.27v-20.44h-20.76l45.05-53.11,44.28,52.34-20.02,.39Z" fill="#fbe493"/>
      <path d="M412.69,559.37c-9.67,0-18.94-2.96-26.83-8.56-8.51-6.15-17.92-17.7-14.5-37.84,.03-.15,2.88-14.92,15.8-23.1,9.35-5.92,21.51-7.02,36.17-3.26-.15-4.49-.09-29.71,18.52-42.75,10.77-7.55,24.22-9.54,36.9-5.45,12.74,4.11,22.55,13.65,26.91,26.16,1.89,5.6,2.9,11.42,3.02,17.31,2.99-4.92,13.11-18.72,30.81-15.14,7.84,1.62,14.71,6.1,19.37,12.61,4.9,6.57,7.19,14.63,6.51,22.77,5.1-2.77,31.92-15.86,47.05,5.38,4.32,6.08,6.58,13.24,6.54,20.69-.07,9.58-3.48,22.3-19.32,28.46-4.77,1.82-9.78,2.72-14.88,2.68h-69.37v-21.78l19.46-.38-43.22-51.09-43.97,51.84h20.18v21.44h-54.77c-.12,0-.25,0-.37,0Zm-5.27-73.95c-7.57,0-14.17,1.76-19.73,5.28-12.55,7.94-15.33,22.29-15.36,22.44-2.68,15.76,2.07,28.16,14.1,36.85,7.72,5.48,16.79,8.38,26.25,8.38,.12,0,.24,0,.36,0h53.77v-19.44h-21.34l46.13-54.38,.38,.45,44.96,53.14-20.58,.4v19.8h68.37c4.98,.05,9.87-.85,14.52-2.62,15.31-5.96,18.61-18.27,18.68-27.54,.04-7.24-2.16-14.2-6.36-20.11-16.15-22.67-46.26-4.81-46.56-4.62l-.87,.53,.11-1.01c.92-8.22-1.29-16.4-6.23-23.04-4.51-6.31-11.17-10.65-18.76-12.22-20.58-4.15-30.55,16.07-30.65,16.28l-.98,2.04,.03-2.26c.08-6.44-.92-12.79-2.97-18.88-4.25-12.21-13.83-21.52-26.27-25.53-12.38-4-25.5-2.06-36.02,5.31-19.91,13.96-18.09,42.27-18.07,42.55l.05,.7-.68-.18c-5.84-1.55-11.28-2.32-16.3-2.32Z" fill="#002346"/>
    </g>
    <g>
      <polygon points="382.55 103.15 419.2 311.92 689.47 263.41 653.09 52.91 382.55 103.15" fill="#e6e7e8"/>
      <path d="M418.8,312.5l-.09-.49-36.74-209.26,.49-.09,271.04-50.33,.09,.5,36.46,210.99-271.25,48.69Zm-35.67-208.95l36.48,207.79,269.29-48.33-36.21-209.51-269.56,50.06Z" fill="#0d2445"/>
    </g>
    <g>
      <polygon points="392.34 110.95 426.99 301.52 679.08 257.34 643.56 63.97 392.34 110.95" fill="#fff"/>
      <path d="M426.59,302.1l-34.83-191.55,.49-.09,251.71-47.07,35.7,194.36-.5,.09-252.58,44.27Zm-33.67-190.75l34.47,189.59,251.1-44.01-35.34-192.38-250.24,46.8Z" fill="#0d2445"/>
    </g>
    <g>
      <polygon points="469.44 196.13 420.05 263.33 426.99 301.52 679.08 257.34 669.19 203.54 578.01 133.18 526.21 241.75 469.44 196.13" fill="#f69074"/>
      <path d="M426.59,302.1l-7.07-38.89,.13-.17,49.7-67.62,56.68,45.55,51.79-108.56,.49,.38,91.33,70.48,.04,.19,9.98,54.3-.5,.09-252.58,44.27Zm-6.01-38.65l6.81,37.49,251.1-44.01-9.76-53.12-90.54-69.86-51.8,108.58-.49-.4-56.36-45.29-48.95,66.61Z" fill="#002346"/>
    </g>
    <g>
      <circle cx="501.44" cy="150.17" r="28.06" fill="#fbe493"/>
      <path d="M501.44,178.73c-15.75,0-28.56-12.81-28.56-28.56s12.81-28.56,28.56-28.56,28.56,12.81,28.56,28.56-12.81,28.56-28.56,28.56Zm0-56.12c-15.2,0-27.56,12.36-27.56,27.56s12.36,27.56,27.56,27.56,27.56-12.36,27.56-27.56-12.36-27.56-27.56-27.56Z" fill="#002346"/>
    </g>
    <g>
      <path d="M290.97,445.14c0,.08,0,.15,0,.23v.13c.1,.47,.17,.95,.21,1.43,.03,.24,.05,.48,.05,.72,.1,1.93-.19,3.87-.85,5.69l-.53,1.46c-.08,.24-.17,.48-.27,.73,0,.02,0,.04,0,.06-.02,.05-.08,.13-.08,.23-.03,.07-.06,.14-.09,.21-.04,.13-.08,.25-.14,.37-3.43,9.36-8.85,23.3-15.3,37.24-.01,.04-.03,.07-.05,.11-2.56,5.69-5.03,10.84-7.09,14.37-2.61,4.91-5.31,9.65-8.07,13.91l-1.58,2.47-7.06,12v.07l-.12,.22-.17,.33c-1.86,3.45-3.63,6.95-5.27,10.51-2.86,5.99-5.31,12.16-7.33,18.48-.78,2.47-1.32,5.01-1.6,7.58,.06,.51,.16,1.02,.3,1.52,.62-1.48,2.34-4.5,6.8-7.37,.29-.19,.65-.41,.92-.57,.27-.16,.55-.33,.85-.48l.54-.29c6.24-3.31,16.46-6.05,33.24-5.48h.96s0,0,0,.01c5.11,.17,10.77,.63,17.11,1.44,6.63,.82,13.09,2.63,19.18,5.37,5.49,2.48,10.98,5.93,12.18,10.1,.34-.64,.62-1.31,.86-2l.64-3.77,18.79-110.88c1.7-9.77,2.08-19.73,1.12-29.61-.73-7.18-2.29-15.06-5.29-21.89,0,0-20.03-62.61-29.75-84.76-.69-1.6-1.29-3.25-1.89-4.89-1.65-4.62-9.47-17.33-45.76-21.4,0,0-65.99-8.94-76.41,2.91,0,0-30.62,122.22-44.86,150.32l-32.33,56.57c-.86,1.47-1.76,3.01-2.7,4.47-3.46,5.45-13.85,22.61-14.91,35.65-.11,1.34,.62,2.6,1.82,3.22h0c1.9,.98,4.23,.09,4.99-1.92,2.19-5.81,10.38-15.44,40.79-12.42,6.1,.56,12.02,2.36,17.39,5.3,5.33,2.96,7.18,11.44,7.2,19.07,0,1.09,1.45,1.48,2.01,.55,2.15-3.59,5.41-9.09,7.58-12.72,1.66-2.78,3.24-5.61,4.74-8.48l7.4-14.2s23.91-43.85,34.41-75.07c2.09-6.17,4.45-12.17,7-18.17,6.98-16.32,19.54-45.89,23.8-57.28,.54-1.44,2.55-1.47,3.13-.05,5.07,12.31,20.34,48.38,31.04,63.19,1.16,1.61,1.98,3.43,2.42,5.36" fill="#f69074"/>
      <path d="M327.58,579.28l-.34-1.2c-.95-3.31-5.07-6.7-11.91-9.78-6.05-2.72-12.46-4.51-19.04-5.33-6.1-.78-11.84-1.26-17.07-1.44h-.94c-14.23-.5-25.31,1.33-33.01,5.41l-.54,.29c-.27,.13-.5,.27-.73,.41l-.1,.06c-.26,.16-.62,.37-.9,.56-4.31,2.78-5.99,5.67-6.61,7.15l-.55,1.33-.39-1.38c-.15-.52-.25-1.06-.31-1.6v-.06s0-.06,0-.06c.28-2.6,.83-5.18,1.62-7.68,2.02-6.32,4.49-12.56,7.36-18.54,1.56-3.39,3.29-6.84,5.28-10.53l.3-.64,7.06-12,1.59-2.49c2.53-3.9,5.16-8.44,8.05-13.87,1.83-3.14,4.14-7.83,7.08-14.34l.05-.12c6.57-14.19,11.94-28.06,15.28-37.2,.06-.14,.1-.23,.13-.33,.04-.09,.06-.15,.08-.19,.01-.09,.04-.16,.07-.22v-.06s.04-.08,.04-.08c.1-.24,.18-.47,.26-.7l.54-1.47c.64-1.77,.92-3.62,.82-5.49,0-.24-.02-.46-.05-.68-.04-.48-.11-.94-.2-1.39v-.23c0-.09,0-.14,0-.19l1-.09c0,.11,0,.21,0,.32v.03c.1,.48,.17,.96,.21,1.45,.03,.24,.05,.5,.05,.76,.1,1.99-.19,3.97-.88,5.87l-.53,1.46c-.07,.21-.15,.43-.24,.66l-.03,.14s-.03,.06-.04,.09l-.03,.13c-.03,.09-.07,.18-.11,.27,0,.06-.07,.21-.13,.36-3.34,9.12-8.72,23.02-15.3,37.24,0,.03-.03,.08-.06,.13-2.93,6.52-5.26,11.24-7.1,14.39-2.89,5.44-5.54,10.01-8.08,13.93l-1.58,2.47-7.33,12.58c-1.98,3.68-3.7,7.11-5.26,10.49-2.84,5.95-5.3,12.15-7.31,18.42-.77,2.41-1.29,4.91-1.57,7.42,0,0,0,0,0,0,.98-1.68,2.84-4.03,6.33-6.27,.29-.19,.66-.42,.93-.58l.1-.06c.25-.15,.51-.3,.79-.44l.52-.28c7.85-4.17,19.12-6.03,33.49-5.54l1.34,.02c5.15,.18,10.8,.67,16.78,1.43,6.68,.83,13.18,2.65,19.32,5.41,6.46,2.92,10.5,6.03,12.02,9.28,.12-.29,.24-.59,.34-.88l.62-3.69,18.79-110.88c1.7-9.73,2.07-19.65,1.11-29.48-.86-8.45-2.62-15.76-5.25-21.74-.22-.67-20.15-62.89-29.75-84.76-.67-1.55-1.26-3.15-1.83-4.71l-.08-.21c-1.4-3.91-8.79-16.97-45.35-21.08-.67-.09-65.52-8.73-75.9,2.65-1.12,4.46-30.96,122.86-44.87,150.3l-32.34,56.59c-.89,1.53-1.78,3.04-2.71,4.49-4.12,6.49-13.81,22.95-14.83,35.42-.09,1.13,.52,2.2,1.55,2.73,.78,.4,1.7,.46,2.51,.14,.82-.31,1.47-.97,1.78-1.79,2.29-6.06,10.7-15.79,41.3-12.74,6.2,.57,12.12,2.37,17.58,5.36,6.7,3.72,7.45,14.88,7.46,19.51,0,.41,.33,.53,.42,.55,.21,.06,.49,.02,.65-.26,1.05-1.75,2.36-3.96,3.68-6.17,1.39-2.33,2.79-4.69,3.9-6.55,1.65-2.76,3.24-5.61,4.72-8.45l7.4-14.2c.24-.45,24.01-44.18,34.38-75,1.92-5.66,4.21-11.61,7.01-18.21,7.07-16.53,19.56-45.94,23.79-57.26,.32-.86,1.09-1.4,2.01-1.42h.04c.9,0,1.67,.52,2.02,1.35,4.55,11.03,20.21,48.17,30.98,63.09,1.2,1.67,2.04,3.54,2.5,5.54l-.97,.22c-.43-1.88-1.21-3.62-2.34-5.18-10.54-14.59-25.25-49.12-31.09-63.29-.23-.55-.73-.74-1.11-.74-.39,0-.88,.21-1.09,.77-4.24,11.33-16.73,40.77-23.81,57.3-2.79,6.57-5.08,12.5-6.99,18.13-10.39,30.9-34.21,74.71-34.44,75.15l-7.4,14.19c-1.49,2.86-3.09,5.72-4.75,8.5-1.11,1.86-2.51,4.21-3.9,6.54-1.32,2.22-2.63,4.43-3.68,6.18-.37,.62-1.08,.9-1.78,.71-.69-.19-1.16-.8-1.16-1.52-.02-9.27-2.62-16.23-6.94-18.63-5.34-2.92-11.12-4.69-17.19-5.24-29.94-2.97-38.08,6.31-40.27,12.1-.41,1.09-1.27,1.95-2.35,2.37-1.09,.42-2.3,.35-3.33-.18-1.39-.72-2.21-2.17-2.09-3.7,1.04-12.69,10.83-29.31,14.99-35.87,.92-1.44,1.8-2.94,2.66-4.4l32.36-56.62c14.04-27.71,44.5-148.97,44.81-150.19l.03-.12,.08-.09c10.48-11.92,74.15-3.44,76.85-3.08,36.11,4.05,44.31,16.54,46.16,21.73l.08,.21c.56,1.54,1.15,3.13,1.8,4.65,9.62,21.92,29.57,84.18,29.77,84.81,2.65,6.02,4.44,13.44,5.31,21.99,.96,9.92,.59,19.93-1.12,29.75l-19.43,114.65c-.26,.79-.56,1.49-.91,2.15l-.58,1.11Z" fill="#002346"/>
    </g>
    <g>
      <path d="M327.43,576.34c.59,.98,.56,2.21-.06,3.17-6.16,9.1-24.26,15.44-45,15.46-22.94,0-42.14-4.93-45.14-13.93-.39-.27-1.38-4.96-1.3-5.86,.36-1,2-4.51,6.77-7.39h0c.3-.19,.6-.39,.92-.58s.55-.33,.85-.48l.54-.29c6.23-3.31,16.46-6,33.24-5.48h1c5.09,.16,10.77,.62,17.11,1.43,6.63,.83,13.09,2.65,19.18,5.4,4.69,2.13,9.87,5.18,11.89,8.55Z" fill="#f69074"/>
      <path d="M282.37,595.47c-24.78,0-42.66-5.58-45.6-14.23-.66-1.08-1.4-5.41-1.34-6.1l.03-.13c.26-.73,1.84-4.54,6.98-7.65l.27-.17c.21-.14,.43-.28,.66-.41,.37-.22,.59-.35,.88-.5l.53-.28c7.76-4.12,19.02-5.99,33.49-5.54h.98c5.23,.16,11,.65,17.17,1.43,6.68,.84,13.18,2.67,19.32,5.44,4.31,1.96,9.9,5.06,12.11,8.75h0c.68,1.14,.65,2.59-.07,3.7-6.34,9.37-24.59,15.67-45.42,15.69Zm-44.8-14.81l.08,.06,.05,.16c2.75,8.26,20.28,13.59,44.67,13.59,20.51-.02,38.43-6.14,44.59-15.24,.51-.79,.53-1.82,.04-2.63-2.19-3.65-8.25-6.8-11.67-8.35-6.05-2.73-12.45-4.53-19.04-5.36-6.14-.78-11.88-1.26-17.06-1.43h-.98c-14.31-.45-25.4,1.38-33.01,5.42l-.54,.29c-.28,.14-.48,.26-.75,.42-.29,.17-.5,.31-.7,.44l-.28,.18c-4.72,2.85-6.24,6.26-6.54,7.07-.03,.89,.8,4.77,1.14,5.38Z" fill="#002346"/>
    </g>
    <g>
      <path d="M262.23,562.04l.26,40.11s15,12.19,40-1.17l6.74-35.94c-14.89-3.86-31.87-5.76-47-3Z" fill="#f2b3c1"/>
      <path d="M280,607.7c-11.28,0-17.72-5.08-17.82-5.16l-.18-.15v-.24s-.26-40.53-.26-40.53l.41-.08c17.29-3.15,35.22-.1,47.22,3.01l.45,.12-6.87,36.64-.21,.11c-8.87,4.74-16.53,6.27-22.73,6.27Zm-17.01-5.79c1.78,1.29,16.24,10.84,39.05-1.25l6.61-35.25c-11.8-3.02-29.16-5.91-45.92-2.95l.25,39.45Z" fill="#002346"/>
    </g>
    <g>
      <path d="M273.7,629.47l-10.7-.68c-1.47-.1-2.69-1.16-3-2.6l-.81-5.54c-.17-1.13,1.02-1.98,2.03-1.45,3.37,1.77,10.76,4.47,25.61,5.53-1-.37,57.85,3.67,58.9-2.19,0,0,.81,9.05-22.85,8.76l-40.71-1.06-8.47-.77Z" fill="#fff"/>
      <path d="M323.97,631.81c-.36,0-.72,0-1.09,0l-40.72-1.06-8.5-.77-10.69-.68c-1.68-.12-3.1-1.35-3.46-2.99l-.82-5.57c-.1-.71,.2-1.42,.79-1.83,.58-.41,1.34-.47,1.97-.13,3,1.58,10.3,4.39,25.42,5.47v.02c.61-.06,1.97,0,5.09,.14,43.39,1.95,52.93,.02,53.28-1.95l.66-3.67,.33,3.71c0,.08,.15,1.96-1.75,4-2.26,2.44-7.66,5.31-20.51,5.31Zm-63.4-12.27c-.18,0-.36,.06-.51,.17-.28,.2-.42,.53-.37,.87l.81,5.54c.26,1.18,1.3,2.09,2.54,2.17l10.71,.68,8.47,.77,40.68,1.06c13.21,.19,18.61-2.6,20.81-4.94,.62-.66,1-1.29,1.21-1.82-4.55,2.4-21.06,2.8-53.01,1.36-.75-.03-1.46-.07-2.09-.09l.47,.17-3.5-.25c-14.54-1.04-22.06-3.61-25.81-5.58-.13-.07-.28-.1-.42-.1Z" fill="#0d2445"/>
    </g>
    <g>
      <path d="M164.43,545.55c7.97,5.95,7.29,18.08-1.19,23.3-7.32,4.5-17.38,7.28-28.48,7.28-18.87,0-34.72-8.01-39.23-18.86-1.58-3.79-.81-8.09,2.12-11,5.02-4.97,17.02-11.48,44.88-8.75,6.18,.56,12.17,2.36,17.61,5.3,1.45,.8,2.91,1.7,4.28,2.73Z" fill="#f69074"/>
      <path d="M134.76,576.63c-18.67,0-35-7.88-39.69-19.17-1.67-4.01-.79-8.55,2.23-11.54,5.58-5.54,17.97-11.57,45.28-8.9,6.28,.57,12.27,2.37,17.8,5.36,1.59,.87,3.05,1.8,4.34,2.77h0c3.89,2.9,6,7.36,5.78,12.24-.22,4.88-2.84,9.33-7,11.89-7.71,4.74-17.92,7.35-28.75,7.35Zm-4.49-39.25c-19.64,0-28.51,5.53-32.26,9.25-2.73,2.71-3.52,6.81-2.01,10.45,4.54,10.92,20.48,18.55,38.76,18.55,10.65,0,20.67-2.56,28.22-7.21,3.88-2.39,6.33-6.53,6.53-11.08,.2-4.54-1.76-8.69-5.38-11.39h0c-1.26-.94-2.68-1.84-4.22-2.69-5.41-2.92-11.27-4.69-17.42-5.24-4.48-.44-8.54-.63-12.23-.63Z" fill="#002346"/>
    </g>
    <g>
      <path d="M106.23,541.04l-11.84,56.11s20.33,7.49,45.12-7.49l19.76-47.38s-23.04-11.24-53.04-1.24Z" fill="#f2b3c1"/>
      <path d="M107.63,599.49c-8.17,0-13.31-1.83-13.42-1.86l-.41-.15,11.99-56.82,.27-.09c29.85-9.95,53.18,1.16,53.42,1.27l.42,.21-.18,.43-19.82,47.53-.14,.08c-12.44,7.52-23.85,9.39-32.14,9.39Zm-12.66-2.67c2.98,.93,21.83,5.92,44.14-7.5l19.51-46.78c-3.27-1.43-24.85-10.05-51.96-1.12l-11.69,55.4Z" fill="#002346"/>
    </g>
    <g>
      <path d="M88.68,619.73s-1.25-16.34,5.71-22.58c0,0,18.37,7.67,45.12-7.49,8.44,7.76,18.58,13.44,29.61,16.59,0,0,14.63,5.88,10.88,14.8,0,0-.53,3.21-15.33,3.21,0,0-67.79-1.75-75.99-4.53Z" fill="#fbe493"/>
      <path d="M164.67,624.76c-2.78-.07-67.97-1.78-76.15-4.56l-.31-.11-.03-.33c-.05-.68-1.19-16.66,5.88-22.99l.24-.21,.29,.12c.18,.08,18.48,7.38,44.68-7.46l.32-.18,.27,.25c8.34,7.67,18.51,13.36,29.41,16.48,.41,.16,8.84,3.6,11.23,9.34,.84,2,.83,4.05-.01,6.09-.18,.74-1.81,3.56-15.81,3.56Zm-75.51-5.41c9.33,2.67,74.86,4.39,75.52,4.41,13.77,0,14.82-2.8,14.83-2.83,.78-1.87,.79-3.67,.05-5.43-2.24-5.36-10.55-8.75-10.63-8.79-10.88-3.11-21.09-8.79-29.49-16.44-24.63,13.83-42.42,8.35-44.94,7.45-5.92,5.65-5.47,19.31-5.34,21.63Z" fill="#002346"/>
    </g>
    <g>
      <path d="M88.63,624.73l.05-5s4.84,1.42,21.6,2.3l51.53,2.23s15.7,.89,18.19-3.21c0,0,.36,6.42-3.56,6.78H91.69c-1.69,0-3.06-1.37-3.06-3.06,0-.01,0-.03,0-.04Z" fill="#fff"/>
      <path d="M91.69,628.33c-.95,0-1.84-.37-2.51-1.04-.67-.67-1.04-1.57-1.04-2.52l.06-5.7,.63,.18s5.03,1.42,21.49,2.28l51.53,2.23c4.29,.25,15.83,.18,17.74-2.97l.84-1.38,.09,1.61c.02,.28,.34,6.91-4.01,7.31H91.69s0,0,0,0Zm-2.56-3.6v.04c0,.68,.27,1.33,.75,1.81,.48,.48,1.12,.75,1.81,.75h84.75c2.38-.22,2.92-3.25,3.04-5.01-4.22,3.16-17.1,2.48-17.7,2.44l-51.52-2.23c-13.56-.71-19.31-1.77-21.08-2.16l-.04,4.37Z" fill="#0d2445"/>
    </g>
    <g>
      <path d="M202.53,297.71c10.33-1.68,20.8-2.35,31.25-1.9,16.48,.71,32.9,2.61,49.13,5.7,0,0,27.17,4.75,30.43,21.39l4.42-61.11,66.6-24.25,19.18-14.83-6.22-35.45-36.44,34.87s-52-50-63.53-52.74c0,0-23.67-14-41-7,0,0-22.23,1.45-35.81,37,0,0-23.1,60-38.69,82.28s-15.19,47.27-5.54,53.67c0,0-.04-.19-.11-.55-3.16-17.52,8.76-34.22,26.33-37.08h0Z" fill="#fbe493"/>
      <path d="M177.04,336.44l-1.02-.67c-3.17-2.1-5.39-6.07-6.41-11.46-1.88-9.9,.24-26.38,11.82-42.92,15.38-21.97,38.4-81.57,38.63-82.17,13.11-34.32,34.61-37.15,36.16-37.31,16.9-6.77,39.9,6.21,41.31,7.02,11.29,2.83,58.42,47.8,63.34,52.52l36.77-35.19,6.43,36.67-19.55,15.09-66.29,24.14-4.67,64.52-.72-3.67c-3.16-16.11-29.76-20.95-30.03-20.99-16.14-3.07-32.65-4.98-49.06-5.69-10.24-.44-20.72,.2-31.14,1.89l-.08-.49,.08,.49c-8.41,1.37-15.75,5.95-20.67,12.91-4.88,6.91-6.75,15.28-5.25,23.58,.06,.35,.1,.54,.1,.54l.25,1.2Zm90.16-175.49c-3.66,0-7.29,.55-10.67,1.91l-.15,.04c-.22,.01-22.08,1.88-35.38,36.68-.23,.6-23.3,60.31-38.75,82.39-11.4,16.29-13.49,32.46-11.66,42.16,.86,4.52,2.57,7.96,4.99,10.05-1.32-8.33,.63-16.7,5.54-23.63,5.08-7.18,12.65-11.91,21.33-13.32h0c10.5-1.71,21.04-2.34,31.35-1.9,16.46,.71,33.01,2.63,49.2,5.71,1.05,.18,24.59,4.46,30.04,19.01l4.24-58.6,.3-.11,66.53-24.22,18.88-14.6-6.01-34.23-36.11,34.55-.35-.33c-.52-.5-52.03-49.94-63.3-52.61l-.14-.06c-.19-.11-15.23-8.88-29.89-8.88Z" fill="#002346"/>
    </g>
    <g>
      <path d="M342.4,230.61c2.27,.45,5.42,3.16,7.55,8.84l-15.1,.85c.55-2.58,1.51-5.05,2.85-7.32,.95-1.49,2.96-2.71,4.7-2.37Z" fill="#fbe493"/>
      <path d="M334.85,240.8c-.15,0-.28-.06-.38-.17-.1-.12-.14-.28-.11-.43,.56-2.64,1.54-5.15,2.91-7.47,1-1.57,3.18-3,5.23-2.61t0,0c2.34,.46,5.66,3.11,7.92,9.15,.06,.15,.04,.32-.05,.45-.09,.13-.23,.22-.39,.23l-15.1,.85s-.02,0-.03,0Zm6.93-9.75c-1.42,0-2.92,1.04-3.66,2.2-1.2,2.02-2.08,4.22-2.64,6.52l13.75-.78c-2.11-5.21-5.02-7.51-6.93-7.89-.17-.03-.35-.05-.52-.05Z" fill="#002346"/>
    </g>
    <g>
      <path d="M334.85,240.3l49.5-2.78,19.18-14.83,1.93,10.95,26.44-9.49c1.9-.68,3.99,.31,4.67,2.2,.07,.18,.12,.37,.15,.57l3.06,16.72c.29,1.61-.53,3.22-2,3.94l-23.12,11.15c-2.89,1.39-6.11,1.95-9.3,1.62l-2.59-.27c-2.67-.29-5.37,.05-7.88,1l-46.73,18.21s-17.68-21.1-13.31-38.99Z" fill="#f2b3c1"/>
      <path d="M348.01,279.89l-.23-.27c-.18-.21-17.79-21.5-13.41-39.43l.09-.36,49.71-2.79,19.71-15.24,1.97,11.18,25.88-9.29c2.16-.77,4.54,.35,5.31,2.51,.07,.21,.13,.42,.17,.64l3.06,16.72c.33,1.83-.61,3.67-2.27,4.48l-23.12,11.15c-2.97,1.43-6.28,2.01-9.57,1.67l-2.59-.27c-2.58-.28-5.22,.05-7.65,.97l-47.06,18.34Zm-12.76-39.11c-3.69,16.27,11.05,35.39,13.07,37.91l46.39-18.08c2.58-.98,5.38-1.33,8.12-1.03l2.59,.27c3.1,.32,6.22-.22,9.03-1.57l23.12-11.15c1.26-.62,1.97-2.01,1.72-3.4l-3.06-16.72c-.03-.16-.07-.33-.13-.49-.59-1.63-2.39-2.49-4.03-1.9l-27,9.69-1.89-10.72-18.65,14.42-49.28,2.77Z" fill="#002346"/>
    </g>
    <g>
      <path d="M263.34,160.41l9.06-37.19,28.28,27.74-2.9,23.17s-25.1,3.73-34.44-13.72Z" fill="#f2b3c1"/>
      <path d="M292.31,174.94c-8.05,0-22.74-1.83-29.41-14.3l-.09-.17,.05-.19,9.27-38.04,29.08,28.53-2.98,23.79-.38,.06c-.07,.01-2.25,.32-5.54,.32Zm-28.44-14.6c8.51,15.6,30.33,13.7,33.46,13.34l2.82-22.54-27.48-26.95-8.81,36.15Z" fill="#002346"/>
    </g>
    <g>
      <rect x="273.55" y="85.61" width="48.32" height="69.98" rx="24.16" ry="24.16" transform="translate(72.14 -108.08) rotate(23.34)" fill="#f2b3c1"/>
      <path d="M293.41,155.21c-3.32,0-6.63-.68-9.77-2.03-12.49-5.39-18.26-19.93-12.87-32.41l8.58-19.89c5.39-12.49,19.93-18.26,32.41-12.87,12.49,5.39,18.26,19.93,12.87,32.41l-8.58,19.89c-2.61,6.05-7.42,10.72-13.54,13.15-2.95,1.17-6.03,1.75-9.11,1.75Zm8.62-68.22c-9.16,0-17.9,5.35-21.76,14.29l-8.58,19.89c-5.17,11.98,.37,25.93,12.35,31.1,5.8,2.5,12.23,2.6,18.11,.27,5.87-2.33,10.49-6.81,12.99-12.62l8.58-19.89c5.17-11.98-.37-25.93-12.35-31.1-3.04-1.31-6.22-1.94-9.34-1.94Z" fill="#002346"/>
    </g>
    <g>
      <path d="M255.65,144.16c2.5,1.8,5.13,3.42,7.86,4.85h0c.97,.54,2.18,.19,2.72-.78,.09-.16,.16-.34,.2-.52l2.8-15.67s-1-6,3-13l8.07-14.32c.06-.2,.15-.38,.27-.55,1.53-2.15,12.6-17.38,26.62-8.65,.42,.27,.73,.68,.86,1.16,.95,3.05,4.79,15.17,13.95,20.11,.82,.41,3.23,2.25,1.23,5.25l-7.63,18.07s-3.51,10.21-15.44,13.57l-1.29,12.29s12.98,1.74,17.67-6.59c3.4-6.39,20.43-39.5,18.74-57.19,0,0-.07-1.2-.46-3.12-4.01-19.47-25.13-29.97-43.37-22.08-6.06,2.63-12.83,7.19-19.73,14.91-11.05,13.29-18.93,28.92-23.05,45.71-.17,.8,.15,1.64,.82,2.11l3.13,2.26,3.04,2.18Z" fill="#002346"/>
      <path d="M301.8,166.63c-1.68,0-2.84-.15-2.99-.17l-.48-.06,1.37-13.11,.33-.09c11.54-3.25,15.07-13.15,15.1-13.25l7.64-18.11c.66-1,.86-1.87,.66-2.66-.27-1.01-1.16-1.7-1.65-1.95-6.17-3.33-11.08-10.38-14.2-20.41-.1-.38-.33-.69-.65-.89-12.78-7.96-23.09,4.51-25.95,8.52-.09,.12-.15,.26-.2,.4l-.04,.1-8.07,14.32c-3.86,6.75-2.95,12.62-2.94,12.67v.08s0,.08,0,.08l-2.8,15.67c-.06,.25-.14,.47-.25,.68-.67,1.21-2.2,1.64-3.4,.97-2.73-1.43-5.4-3.08-7.91-4.88l-6.17-4.44c-.83-.59-1.23-1.62-1.02-2.62,4.12-16.78,12.12-32.65,23.15-45.92,6.23-6.96,12.93-12.02,19.92-15.05,9-3.9,19.13-3.54,27.79,.96,8.44,4.39,14.37,12.21,16.27,21.47,.4,1.93,.47,3.14,.47,3.19,1.71,17.85-15.36,50.99-18.8,57.45-3.44,6.11-10.97,7.02-15.18,7.02Zm-2.38-1.11c2.36,.2,12.72,.66,16.68-6.39,3.41-6.41,20.36-39.32,18.68-56.9,0-.03-.07-1.21-.45-3.06-1.85-8.96-7.59-16.54-15.76-20.79-8.4-4.37-18.21-4.7-26.93-.93-6.86,2.97-13.44,7.94-19.56,14.79-10.92,13.14-18.86,28.88-22.94,45.5-.13,.6,.11,1.22,.62,1.58l6.17,4.44c2.47,1.78,5.1,3.4,7.8,4.81,.73,.41,1.65,.14,2.05-.58,.07-.12,.12-.25,.15-.39l2.78-15.57c-.11-.81-.75-6.55,3.07-13.24l8.04-14.27c.08-.23,.18-.44,.32-.64,2.98-4.19,13.76-17.21,27.29-8.79,.53,.33,.91,.85,1.08,1.45,3.04,9.75,7.78,16.61,13.71,19.8,.16,.08,1.71,.9,2.15,2.58,.29,1.08,.03,2.22-.75,3.39l-7.59,17.99c-.02,.07-3.66,10.28-15.44,13.76l-1.2,11.45Z" fill="#0d2445"/>
    </g>
    <g>
      <ellipse cx="292.59" cy="96.74" rx="15.26" ry="9.67" transform="translate(-13.95 128.39) rotate(-24.19)" fill="#002346"/>
      <path d="M287.8,108.05c-.79,0-1.57-.05-2.32-.16-3.55-.51-6.13-2.18-7.26-4.7-2.3-5.12,2.28-12.17,10.21-15.74h0c7.93-3.56,16.25-2.3,18.54,2.82s-2.28,12.17-10.21,15.74c-2.98,1.34-6.09,2.04-8.96,2.04Zm1.03-19.68h0c-7.42,3.34-11.78,9.8-9.71,14.41,.99,2.19,3.29,3.66,6.49,4.12,3.29,.47,7.09-.17,10.73-1.8,7.42-3.33,11.78-9.8,9.71-14.41s-9.8-5.65-17.22-2.32Z" fill="#0d2445"/>
    </g>
    <g>
      <ellipse cx="276.73" cy="111.54" rx="8" ry="6" transform="translate(115.37 362.51) rotate(-79.21)" fill="#f2b3c1"/>
      <path d="M276.1,119.98c-.32,0-.64-.03-.96-.09-1.73-.33-3.18-1.53-4.08-3.37-.88-1.79-1.13-3.99-.71-6.2,.42-2.2,1.46-4.16,2.94-5.5,1.51-1.38,3.3-1.96,5.04-1.63,1.73,.33,3.18,1.53,4.08,3.37,.88,1.79,1.13,3.99,.71,6.2-.42,2.2-1.46,4.16-2.94,5.5-1.24,1.13-2.66,1.72-4.08,1.72Zm1.27-15.88c-1.17,0-2.36,.5-3.41,1.46-1.32,1.2-2.25,2.96-2.63,4.95s-.16,3.97,.62,5.57c.76,1.55,1.96,2.55,3.37,2.82,1.42,.27,2.9-.22,4.18-1.39,1.32-1.2,2.25-2.96,2.63-4.95h0c.38-1.99,.16-3.97-.62-5.57-.76-1.55-1.96-2.55-3.37-2.82-.25-.05-.51-.07-.76-.07Z" fill="#002346"/>
    </g>
    <g>
      <path d="M232.37,237.13l46.63,40.74c4.75,4.17,10.62,6.85,16.89,7.71,5.94,.8,14.2,.87,25.18-1.09l27.14-5.2s-24.25-28-9-48.22l-32.92,11.26-47.64-44.76" fill="#fbe493"/>
      <path d="M304.24,286.61c-2.97,0-5.78-.18-8.42-.53-6.38-.87-12.31-3.58-17.15-7.83l-46.63-40.74c-.21-.18-.23-.5-.05-.71,.18-.21,.5-.23,.71-.05l46.63,40.74c4.69,4.12,10.44,6.75,16.63,7.59,7.16,.97,15.58,.6,25.02-1.09l26.31-5.04c-3.44-4.28-21.64-28.48-9.38-46.91l-31.46,10.76c-.17,.06-.37,.02-.5-.11l-47.64-44.76c-.2-.19-.21-.5-.02-.71,.19-.2,.51-.21,.71-.02l47.42,44.55,32.63-11.16c.21-.07,.44,0,.57,.18,.13,.18,.13,.42,0,.59-14.83,19.66,8.74,47.32,8.98,47.59,.12,.13,.15,.32,.09,.49s-.2,.29-.38,.33l-27.14,5.2c-6.08,1.08-11.74,1.63-16.92,1.63Z" fill="#002346"/>
    </g>
    <path d="M288.22,186.27c-23.65,0-37.3-21.33-37.48-21.61-.15-.23-.08-.54,.16-.69,.23-.15,.54-.08,.69,.16,.06,.09,5.76,9.1,16.03,15.3,13.74,8.29,28.69,7.89,44.44-1.19,.24-.14,.54-.06,.68,.18,.14,.24,.06,.54-.18,.68-8.98,5.17-17.12,7.16-24.34,7.16Z" fill="#002346"/>
    <g>
      <path d="M259.63,619.73s-4.38-20.55,2.6-24.69c0,0,19,11.37,42-2l29,12s15.45,7.18,12.27,18.15c0,0,1.16,3.47-18.77,2.89,0,0-52.73,.29-67.1-6.35Z" fill="#fbe493"/>
      <path d="M330.96,626.65c-1.33,0-2.74-.02-4.24-.06-2.15,0-53.16,.13-67.29-6.4l-.23-.11-.05-.24c-.18-.85-4.37-20.95,2.83-25.23l.26-.15,.26,.15c.19,.11,19.03,11.06,41.49-2l.21-.12,29.23,12.09c.18,.08,15.73,7.46,12.59,18.65,.01,.19-.02,.51-.29,.87-1.25,1.68-6.32,2.55-14.77,2.55Zm-4.03-1.06c13.98,.39,17.18-1.25,17.9-1.97,.2-.2,.2-.32,.2-.32l-.05-.15,.06-.1c3.02-10.43-11.85-17.49-12-17.56l-28.75-11.9c-21.41,12.32-39.59,3.33-42.02,2.03-5.87,3.99-2.63,21.47-2.18,23.76,14.26,6.33,64.48,6.21,66.64,6.2h.21s0,0,0,0Z" fill="#002346"/>
    </g>
  </g>
  <path d="M409.14,240.32c-.21,0-.4-.13-.47-.33-.09-.26,.04-.55,.3-.64l28-10c.26-.09,.55,.04,.64,.3s-.04,.55-.3,.64l-28,10c-.06,.02-.11,.03-.17,.03Z" fill="#002346"/>
  <path d="M412.14,247.32c-.19,0-.37-.11-.45-.29-.12-.25,0-.55,.24-.66l26-12c.25-.12,.55,0,.66,.24,.12,.25,0,.55-.24,.66l-26,12c-.07,.03-.14,.05-.21,.05Z" fill="#002346"/>
  <path d="M415.14,252.32c-.19,0-.37-.1-.45-.28-.12-.25-.01-.55,.24-.67l23-11c.25-.12,.55-.01,.67,.24s.01,.55-.24,.67l-23,11c-.07,.03-.14,.05-.22,.05Z" fill="#002346"/>
</svg>