<svg xmlns="http://www.w3.org/2000/svg" width="865.76" height="682.89" viewBox="0 0 865.76 682.89">
  <rect x="41.39" y="639.58" width="782.97" height="1"/>
  <rect x="243.49" y="98.3" width="8.22" height="372.74" fill="#fff"/>
  <path d="M252.22,471.55H243V97.8h9.23Zm-8.23-1h7.23V98.8H244Z"/>
  <rect x="655.39" y="496.26" width="41.79" height="17.66" fill="#ebebeb"/>
  <rect x="678.69" y="518.53" width="41.79" height="17.66" fill="#ebebeb"/>
  <rect x="632.06" y="518.53" width="41.79" height="17.66" fill="#ebebeb"/>
  <rect x="93.49" y="518.53" width="41.79" height="17.66" fill="#ebebeb"/>
  <rect x="93.49" y="42.03" width="41.79" height="17.66" fill="#ebebeb"/>
  <rect x="70.18" y="64.3" width="41.79" height="17.66" fill="#ebebeb"/>
  <rect x="678.69" y="42.05" width="41.79" height="17.66" fill="#ebebeb"/>
  <rect x="563.55" y="252.16" width="41.79" height="17.66" fill="#ebebeb"/>
  <rect x="540.24" y="229.9" width="41.79" height="17.66" fill="#ebebeb"/>
  <path d="M109,87.92H386.26V475.17H109Zm269,8.22H117.19V467H378Z" fill="#fff"/>
  <path d="M386.76,475.67H108.47V87.42H386.76Zm-277.29-1H385.76V88.42H109.47Zm269-7.19H116.69V95.64H378.47Zm-260.78-1H377.47V96.64H117.69Z"/>
  <rect x="101.5" y="104.55" width="292.22" height="11.46" fill="#e6e7e8"/>
  <rect x="101.5" y="117.45" width="292.22" height="11.46" fill="#e6e7e8"/>
  <rect x="101.5" y="130.34" width="292.22" height="11.46" fill="#e6e7e8"/>
  <rect x="101.5" y="143.22" width="292.22" height="11.46" fill="#e6e7e8"/>
  <rect x="101.5" y="156.12" width="292.22" height="11.46" fill="#e6e7e8"/>
  <rect x="101.5" y="169.02" width="292.22" height="11.46" fill="#e6e7e8"/>
  <rect x="101.5" y="181.89" width="292.22" height="11.46" fill="#e6e7e8"/>
  <rect x="101.5" y="194.78" width="292.22" height="11.46" fill="#e6e7e8"/>
  <rect x="101.5" y="207.68" width="292.22" height="11.46" fill="#e6e7e8"/>
  <rect x="125.93" y="102.23" width="2.05" height="222.96" fill="#84a1e5"/>
  <polygon points="123.31 334.77 130.62 334.77 128.79 324.28 125.14 324.28 123.31 334.77" fill="#84a1e5"/>
  <rect x="118.53" y="102.23" width="2.05" height="279.2" fill="#84a1e5"/>
  <polygon points="115.9 389.15 123.2 389.15 121.37 378.65 117.73 378.65 115.9 389.15" fill="#84a1e5"/>
  <rect x="88.72" y="86.31" width="317.76" height="23.97" fill="#84a1e5"/>
  <path d="M407,110.78H88.22v-25H407Zm-317.77-1H406v-23H89.22Z"/>
  <circle cx="642.58" cy="145.6" r="59.33" transform="translate(85.25 497.02) rotate(-45)" fill="#ebebeb"/>
  <circle cx="645.33" cy="146.98" r="56.62" transform="translate(85.08 499.37) rotate(-45)" fill="#dbdbdb"/>
  <circle cx="645.33" cy="146.99" r="53.04" transform="translate(85.08 499.37) rotate(-45)" fill="#fff"/>
  <g opacity="0.5" style="isolation:isolate">
    <path d="M697.16,135.72c-24.16,14.63-63.85,38.63-86,51.79A53.24,53.24,0,0,1,596.62,168L670,100A53.14,53.14,0,0,1,697.16,135.72Z" fill="#ebebeb"/>
  </g>
  <g opacity="0.5" style="isolation:isolate">
    <path d="M698.31,148.82a52.14,52.14,0,0,1-3.5,17.23l-66.15,31.31a51.42,51.42,0,0,1-8.35-3.6C640.29,182.21,676.8,161.19,698.31,148.82Z" fill="#ebebeb"/>
  </g>
  <rect x="644.8" y="97.78" width="1.03" height="8.03" fill="#c7c7c7"/>
  <rect x="622.2" y="103.8" width="1.03" height="8.03" transform="translate(29.52 325.8) rotate(-30)" fill="#c7c7c7"/>
  <rect x="605.65" y="120.36" width="1.03" height="8.03" transform="translate(195.37 587.14) rotate(-60)" fill="#c7c7c7"/>
  <rect x="596.13" y="146.45" width="8.03" height="1.03" fill="#c7c7c7"/>
  <rect x="602.17" y="168.99" width="8.03" height="1.03" transform="translate(-3.48 326.02) rotate(-30.02)" fill="#c7c7c7"/>
  <rect x="618.73" y="185.6" width="8.03" height="1.03" transform="translate(150.36 632.53) rotate(-60.02)" fill="#c7c7c7"/>
  <rect x="644.8" y="188.13" width="1.03" height="8.03" fill="#c7c7c7"/>
  <rect x="667.37" y="182.05" width="1.03" height="8.03" transform="translate(-3.55 358.87) rotate(-30)" fill="#c7c7c7"/>
  <rect x="683.94" y="165.57" width="1.03" height="8.03" transform="translate(195.28 677.46) rotate(-59.99)" fill="#c7c7c7"/>
  <rect x="686.46" y="146.45" width="8.03" height="1.03" fill="#c7c7c7"/>
  <rect x="680.42" y="123.89" width="8.03" height="1.03" transform="translate(29.58 359.11) rotate(-30.02)" fill="#c7c7c7"/>
  <rect x="663.89" y="107.36" width="8.03" height="1.03" transform="translate(240.81 632.59) rotate(-60.03)" fill="#c7c7c7"/>
  <polygon points="646.08 101.41 647.83 150.55 642.79 150.49 644.72 101.4 646.08 101.41" fill="#c7c7c7"/>
  <polygon points="676.69 129.83 643.63 150.93 641.23 146.51 676.03 128.63 676.69 129.83" fill="#a6a6a6"/>
  <path d="M647,147a1.72,1.72,0,1,1-1.72-1.72h0A1.7,1.7,0,0,1,647,147Z" fill="#c7c7c7"/>
  <path d="M523.6,337.43c-37.71,55.72-83.47,18-93.71,8.32a3.62,3.62,0,0,1-.7-4.36,33.9,33.9,0,0,0,2-4.7c4.48-12.83,4.3-31.9,4.26-34.11a48.3,48.3,0,0,0,75.11-24.69h0c-.19,38.4,8,53.25,11.44,57.82A10.7,10.7,0,0,0,523.6,337.43Z" fill="#f2b3c1"/>
  <path d="M476.83,367.71c-22.51,0-41.66-16.3-47.28-21.6a4.13,4.13,0,0,1-.8-4.95,33.14,33.14,0,0,0,2-4.63c4.57-13.1,4.25-33.09,4.23-33.94l0-1,.82.61a47.81,47.81,0,0,0,74.34-24.43l.08-.27.9-.24,0,.64c-.19,38.2,7.87,52.95,11.34,57.52a10.75,10.75,0,0,0,1.44,1.64l.35.29-.25.38c-12.16,18-26.35,28-42.17,29.72A44.8,44.8,0,0,1,476.83,367.71ZM436,303.58c0,4.59-.17,21.44-4.3,33.28a34.64,34.64,0,0,1-2.06,4.77,3.13,3.13,0,0,0,.6,3.75c6,5.62,27.29,23.74,51.5,21.06,15.41-1.7,29.27-11.44,41.21-28.94a13.57,13.57,0,0,1-1.27-1.5c-3.44-4.52-11.3-18.85-11.54-55.17A48.8,48.8,0,0,1,436,303.58Z"/>
  <path d="M568.45,510.72l7.28,75a246.27,246.27,0,0,0,1.45,54.23H382.47c5.46-53.87-6.55-146.67-6.55-146.67-13.83-9.47-50.22-11.65-50.22-11.65l-1.1,6.55c-16.74.73-10.91-16.38-10.91-16.38,4.73-12,14.19-60.4,14.19-60.4,3.28-33.49,19.66-42.23,19.66-42.23l53.13-23.28c17.83-10.06,28.45-9.43,30.55-9.17a32.93,32.93,0,0,1-1.79,4.24,4.49,4.49,0,0,0,1,5.32c11.21,10.37,56.08,46,93.17-8.82a10.7,10.7,0,0,1-1.53-1.73c15.78,1.26,72.58,24,72.58,24,30.57,12.38,36.76,46.58,36.76,46.58l17.47,89.53C622.67,491.79,568.45,510.72,568.45,510.72Z" fill="#f6c34c"/>
  <path d="M577.18,640.42H381.92l.06-.55c5.25-51.92-5.88-141.22-6.53-146.34-12.85-8.61-45.14-11.11-49.34-11.4L325,488.64h-.41c-4.9.21-8.41-1-10.44-3.77-3.73-5-1.08-12.93-1-13.27,4.67-11.85,14.09-59.86,14.18-60.34,3.26-33.33,19.23-42.21,19.91-42.57l53.17-23.3c18-10.16,28.82-9.45,30.81-9.2l.61.08-.2.58a36.64,36.64,0,0,1-1.81,4.3,4,4,0,0,0,.89,4.72c7.64,7.07,27.92,23.21,51.16,20.54,15.33-1.77,29.13-11.5,41-28.92a13.57,13.57,0,0,1-1.27-1.5l-.67-.88,1.11.08c15.67,1.26,70.41,23.09,72.73,24,30.47,12.34,37,46.61,37.06,47l17.6,90.22-.7-.11c-24.65-3.76-75,13.12-79.82,14.77l7.24,74.58a249.65,249.65,0,0,0,1.45,54.2l.1.58Zm-194.15-1H576.6a251.51,251.51,0,0,1-1.37-53.77l-7.32-75.27.37-.13c.54-.19,53.68-18.59,80-15.05l-17.33-88.84c-.06-.35-6.51-34.09-36.45-46.22-.56-.22-54.24-21.63-71.25-23.81a7.47,7.47,0,0,0,.69.71l.35.29-.25.38c-12.11,17.89-26.23,27.89-42,29.7-23.65,2.72-44.22-13.63-52-20.8a5,5,0,0,1-1.1-5.91,32.67,32.67,0,0,0,1.54-3.57c-3-.22-13.26-.07-29.61,9.16L347.74,369.6c-.13.07-16.15,9-19.36,41.81-.1.54-9.53,48.63-14.23,60.55,0,.05-2.58,7.77.84,12.33,1.76,2.35,4.85,3.48,9.19,3.38l1.1-6.6.45,0c1.49.09,36.69,2.3,50.47,11.73l.19.13,0,.22C376.53,494.11,388.29,586,383,639.42Z"/>
  <path d="M627.92,496.06s24.58,96.23-18.67,108.47c0,0-33.46-3.67-51.82-21.22,0,0-44.82-53-73.51-100.73a21.41,21.41,0,0,0-4.58-5.32c-4.85-4.08-15-14.35-17.79-30.64,0,0-1.23-41.62-2.45-58.75,0,0-4.9-19.59,2-16.32,0,0-3.67-17.55,1.22-20.41,0,0-2.41-6.62-.5-9.78a2.2,2.2,0,0,1,3.25-.56c3,2.34,9.23,12,17.65,50.74,0,0,11,37.76,16.67,58.72a17.31,17.31,0,0,0,3.05,6.15c8.83,11.43,42.72,53.28,66,54.31C568.45,510.72,601.36,499.5,627.92,496.06Z" fill="#f2b3c1"/>
  <path d="M609.29,605h-.09c-.34,0-33.84-3.9-52.11-21.36-.49-.57-45.21-53.62-73.6-100.84a20.89,20.89,0,0,0-4.47-5.19c-4.46-3.74-15.13-14.25-18-30.93,0-.49-1.24-41.88-2.45-58.81-.35-1.36-3.43-14.13-.26-16.73a2.3,2.3,0,0,1,2.14-.4c-.67-3.56-2.8-16.69,1.28-19.83-.48-1.48-2.09-6.92-.33-9.84a2.66,2.66,0,0,1,1.81-1.24,2.76,2.76,0,0,1,2.18.54c3,2.39,9.38,12.2,17.83,51,.1.35,11.06,38,16.66,58.7a17,17,0,0,0,3,6c9.61,12.42,42.68,53,65.51,54.1,1.94-.65,33.86-11.33,59.48-14.65l.44-.05.11.43c.06.24,6.16,24.4,6.9,49.75,1,33.73-8,54.25-25.92,59.32ZM459.73,371.68a1.11,1.11,0,0,0-.76.26c-2.27,1.87-.33,12,.61,15.81,1.23,17,2.45,58.44,2.47,58.86,2.77,16.28,13.24,26.59,17.61,30.26a22,22,0,0,1,4.69,5.45c28.34,47.15,73,100.14,73.46,100.67,17.51,16.73,49.41,20.79,51.4,21,40.7-11.66,20-100.41,18.34-107.41-26.13,3.46-58.61,14.47-58.94,14.58l-.09,0h-.09c-23.26-1-56.67-42-66.35-54.5a18.07,18.07,0,0,1-3.14-6.33c-5.59-20.72-16.55-58.33-16.66-58.71-8.39-38.56-14.56-48.18-17.48-50.49a1.73,1.73,0,0,0-1.38-.35,1.64,1.64,0,0,0-1.13.78c-1.76,2.92.52,9.29.54,9.35l.14.4-.36.21c-3.76,2.19-2,15.08-1,19.86l.2,1-.9-.42A2.89,2.89,0,0,0,459.73,371.68Z"/>
  <path d="M618.39,537.49a.49.49,0,0,1-.23-.06l-49.94-26.27a.5.5,0,0,1,.46-.88l50,26.27a.5.5,0,0,1,.21.67A.51.51,0,0,1,618.39,537.49Z"/>
  <path d="M648.88,495.79s-.18,6.21-18,14.33l-3-14.06A76.59,76.59,0,0,1,648.88,495.79Z" fill="#f6c34c"/>
  <path d="M630.53,510.83l-3.2-15.17.51-.09A77.43,77.43,0,0,1,649,495.3l.44.06v.45c0,.26-.39,6.6-18.28,14.77Zm-2-14.36,2.73,12.93c14-6.49,16.56-11.68,17-13.18A77.14,77.14,0,0,0,628.52,496.47Z"/>
  <path d="M325.7,481.6l-12.16,47.33s-4.18,16.7,0,44.88c0,0-.52,39.14,27.13,31.83,0,0,47.49-1.56,104.9-116.37,0,0-15.66-4.18-24-17.22L377.2,506l-1.28-12.72S367.6,484.89,325.7,481.6Z" fill="#f2b3c1"/>
  <path d="M334.19,607.05a16.62,16.62,0,0,1-10.52-3.49C312.88,595.14,313,574.67,313,573.8c-4.14-27.87,0-44.82,0-45l12.27-47.74.41,0c41.62,3.27,50.2,11.45,50.54,11.79l.13.13,1.21,12,44.08-33.71.29.46c8.15,12.72,23.56,17,23.72,17l.59.16-.27.55c-29.7,59.39-56.7,87.93-74.12,101.41-18.48,14.31-30.12,15.19-31.15,15.24A25.73,25.73,0,0,1,334.19,607.05Zm-8.11-124.92L314,529.05c0,.17-4.1,17,0,44.69,0,.28-.14,20.92,10.25,29,4.24,3.31,9.72,4.11,16.27,2.38l.11,0c.11,0,12-.58,30.75-15.12,17.26-13.39,44-41.68,73.44-100.44-2.9-.91-15.92-5.51-23.41-16.81L376.8,506.91l-1.36-13.42C374.26,492.51,364.23,485.17,326.08,482.13Z"/>
  <path d="M356.85,523.69a.5.5,0,0,1-.32-.88l20.35-17.23a.5.5,0,1,1,.65.77l-20.35,17.22A.52.52,0,0,1,356.85,523.69Z"/>
  <path d="M454.09,479.25s9.9-5.87,13.3-15.15a70.57,70.57,0,0,1-5.84-17.48s-2.39-48.4-2.45-58.75c0,0-5.43-18.47,2-16.32,0,0-3.59-17,1.22-20.41,0,0-1.91-5.31-1.19-9.15,0,0-10.33-2.64-9.37,13,0,0-3.6,1.68-2.4,19.69,0,0-5.28,11.28-6,39.38,0,0-6.24,5.76-6.24,35.29,0,0,0,7.93-4.81,10.57C432.35,459.89,434.29,471.72,454.09,479.25Z" fill="#f2b3c1"/>
  <path d="M454.14,479.81l-.23-.09c-19.84-7.54-22-19.26-22.05-19.75l-.06-.35.31-.17c4.49-2.47,4.55-10.05,4.55-10.13,0-27.18,5.24-34.37,6.24-35.5.71-26.54,5.4-37.93,6-39.27-1-15.36,1.46-19,2.4-19.84-.31-5.66.84-9.61,3.4-11.73a7.92,7.92,0,0,1,6.6-1.47l.46.11-.09.46c-.69,3.66,1.15,8.84,1.17,8.89l.13.36-.31.22c-3.72,2.63-2,15.25-1,19.89l.17.81L461,372a2.13,2.13,0,0,0-2.27.35c-2.32,2.34-.17,11.87.85,15.35l0,.13c.06,10.22,2.42,58.25,2.45,58.74a70.7,70.7,0,0,0,5.78,17.27l.11.19-.08.21c-3.43,9.34-13.1,15.17-13.51,15.41Zm-21.22-19.68c.51,1.94,3.89,11.94,21.12,18.57,1.4-.89,9.71-6.41,12.8-14.57a74.18,74.18,0,0,1-5.78-17.41c0-.56-2.39-48.39-2.46-58.78-.48-1.63-3.69-13.14-.58-16.27a2.83,2.83,0,0,1,2.48-.77c-.63-3.31-2.8-16.38,1.27-19.93-.39-1.2-1.61-5.25-1.17-8.57a6.85,6.85,0,0,0-5.28,1.36c-2.34,1.94-3.35,5.7-3,11.17l0,.34-.31.14s-3.25,2.12-2.11,19.2v.13l-.06.12c-.05.11-5.24,11.55-6,39.18v.21l-.15.14c-.06.06-6.08,6.13-6.08,34.93C437.66,449.65,437.6,457.22,432.92,460.13Z"/>
  <path d="M375.92,493.75a.51.51,0,0,1-.5-.43c-2.74-18.17-20.93-82.71-21.11-83.36a.5.5,0,0,1,.34-.62.51.51,0,0,1,.62.35c.18.65,18.39,65.25,21.14,83.48a.49.49,0,0,1-.42.57Z"/>
  <path d="M567,510.64h0a.5.5,0,0,1-.48-.52l.72-15.18c-.35-49.77,15.44-79.79,15.6-80.09a.5.5,0,0,1,.89.47c-.16.3-15.84,30.12-15.49,79.64l-.72,15.2A.5.5,0,0,1,567,510.64Z"/>
  <path d="M473.65,417.26a.5.5,0,0,1-.5-.47c-2-33.64-12.27-44.79-12.37-44.9a.5.5,0,1,1,.72-.69c.43.45,10.65,11.52,12.65,45.53a.52.52,0,0,1-.47.53Z"/>
  <path d="M481.7,408.92a.49.49,0,0,1-.49-.41c-8.18-46.87-15.14-55.23-17.75-56.66a1.52,1.52,0,0,0-.9-.25.51.51,0,0,1-.66-.26.5.5,0,0,1,.27-.66,2.15,2.15,0,0,1,1.77.29c3.4,1.86,10.29,11.77,18.25,57.36a.49.49,0,0,1-.41.58Z"/>
  <path d="M460.13,358.32a.5.5,0,0,1-.44-.28s-1.46-2.84-3.86-3.48a4.53,4.53,0,0,0-3.75.81.5.5,0,0,1-.69-.14.49.49,0,0,1,.14-.69,5.48,5.48,0,0,1,4.56-.94c2.84.75,4.42,3.86,4.49,4a.5.5,0,0,1-.22.67A.46.46,0,0,1,460.13,358.32Z"/>
  <ellipse cx="514.15" cy="249.89" rx="17.03" ry="11.36" transform="translate(183.8 716.43) rotate(-80.62)" fill="#f2b3c1"/>
  <path d="M512.62,267.29a7.35,7.35,0,0,1-1.32-.11c-6.45-1.06-10.42-9.69-8.84-19.22a22.28,22.28,0,0,1,5.37-11.6c2.75-3,6-4.29,9.18-3.77s5.82,2.84,7.48,6.52a22.31,22.31,0,0,1,1.36,12.71C524.38,260.7,518.62,267.29,512.62,267.29Zm3-33.81c-2.45,0-4.93,1.24-7.1,3.56a21.38,21.38,0,0,0-5.12,11.08c-1.48,9,2.11,17.1,8,18.08s11.92-5.55,13.4-14.54a21.39,21.39,0,0,0-1.28-12.14c-1.52-3.36-3.91-5.47-6.73-5.94A8,8,0,0,0,515.66,233.48Z"/>
  <ellipse cx="419.76" cy="264.55" rx="11.36" ry="17.03" transform="translate(-56.61 125.79) rotate(-15.98)" fill="#f2b3c1"/>
  <path d="M422.33,281.72c-5.68,0-11.62-5.71-14-13.9-2.66-9.3.29-18.32,6.58-20.12,3.08-.88,6.47.07,9.55,2.68a22.44,22.44,0,0,1,6.67,10.91h0c2.66,9.29-.29,18.31-6.57,20.11A7.91,7.91,0,0,1,422.33,281.72Zm-5.1-33.34a7.63,7.63,0,0,0-2,.28c-5.75,1.65-8.39,10.12-5.88,18.88s9.23,14.54,15,12.9,8.4-10.12,5.89-18.88h0a21.31,21.31,0,0,0-6.36-10.41A10.38,10.38,0,0,0,417.23,248.38Z"/>
  <path d="M510.59,277.89a48.3,48.3,0,0,1-94.1-7.68L410,220.66a48.28,48.28,0,0,1,41.55-54.19,47.57,47.57,0,0,1,6.38-.42,48.3,48.3,0,0,1,47.81,42l6.54,49.55A47.93,47.93,0,0,1,510.59,277.89Z" fill="#f2b3c1"/>
  <path d="M464.28,312.68A48.8,48.8,0,0,1,416,270.28l-6.54-49.56a48.78,48.78,0,0,1,42-54.75,49.44,49.44,0,0,1,6.45-.42,48.89,48.89,0,0,1,48.3,42.4l6.55,49.55A48.32,48.32,0,0,1,511.07,278a48.91,48.91,0,0,1-40.31,34.22A50.59,50.59,0,0,1,464.28,312.68Zm-6.39-146.13a47.78,47.78,0,0,0-47.44,54L417,270.14a47.79,47.79,0,0,0,53.64,41.12,47.91,47.91,0,0,0,39.49-33.51h0a47.44,47.44,0,0,0,1.63-20.11l-6.55-49.56A47.88,47.88,0,0,0,457.89,166.55Z"/>
  <path d="M408.25,257a37.87,37.87,0,0,0-6.91-18.27s-24.68-46.9,25.68-73.56c0,0,18.82-29.58,59.47-5.89a42.91,42.91,0,0,1,9.37,7.46,69,69,0,0,0,10.31,8.91A22.79,22.79,0,0,1,515,187.12c2.79,8.32,5.41,23.07,1.92,46,0,0-5.28-.29-7.44,2.59,0,0-4.68-6.84-7.92-18.55,0,0-12-6.81-17.2-16.18a10.38,10.38,0,0,0-7.66-5.14,47.13,47.13,0,0,1-21.07-8.46s-7.68-5.52-12.24,2.89a24.63,24.63,0,0,0-3.76-1.13,15.86,15.86,0,0,0-16.91,7.52,26.81,26.81,0,0,1-7.42,7.53s-6,6.25-4.09,24.5l2.4,19.92S409.37,250.57,408.25,257Z" fill="#040200"/>
  <path d="M420,227.41a.5.5,0,0,1,0-1c11.59-1,17.05-8.2,17.1-8.28a.5.5,0,0,1,.81.59c-.23.32-5.77,7.68-17.83,8.69Z"/>
  <path d="M433.47,189h-.06a.51.51,0,0,1-.44-.56c2-16.13,17.71-19.35,17.87-19.38a.5.5,0,0,1,.58.39.5.5,0,0,1-.39.59c-.15,0-15.14,3.12-17.06,18.53A.51.51,0,0,1,433.47,189Z" fill="#fff"/>
  <path d="M409,200a.5.5,0,0,1-.39-.18.5.5,0,0,1,.06-.7c9.59-8.08,15.23-6.16,15.46-6.07a.49.49,0,0,1,.3.64.51.51,0,0,1-.64.3c-.06,0-5.39-1.76-14.47,5.89A.51.51,0,0,1,409,200Z" fill="#fff"/>
  <path d="M507.52,218.11c-11.65,0-21.62-13.25-22.07-13.85a.5.5,0,0,1,.11-.7.51.51,0,0,1,.7.1c.11.16,11.44,15.2,23.46,13.28a.49.49,0,0,1,.57.41.51.51,0,0,1-.41.58A15.73,15.73,0,0,1,507.52,218.11Z" fill="#fff"/>
  <path d="M469.41,216a23.33,23.33,0,0,1-11.27-2.64.51.51,0,0,1-.18-.69.51.51,0,0,1,.69-.17c.08.05,7.94,4.63,19.06,1.23a.5.5,0,0,1,.62.33.51.51,0,0,1-.33.63A29.45,29.45,0,0,1,469.41,216Z"/>
  <path d="M451.06,247.86a.52.52,0,0,1-.25-.07l-4.63-2.67a6.17,6.17,0,0,1-2.94-6.79L447.06,222a.5.5,0,0,1,1,.23l-3.81,16.28a5.19,5.19,0,0,0,2.46,5.71l4.63,2.66a.51.51,0,0,1,.18.69A.5.5,0,0,1,451.06,247.86Z"/>
  <ellipse cx="474.66" cy="231.24" rx="2.55" ry="4.31" fill="#040200"/>
  <ellipse cx="431.59" cy="237.94" rx="2.55" ry="4.31" fill="#040200"/>
  <path d="M453,279.57c-6.23,0-9.38-2.91-9.61-3.14a.5.5,0,0,1,0-.71.49.49,0,0,1,.7,0c.11.1,10.53,9.66,31.89-7.37a.5.5,0,0,1,.62.78C466.26,277.34,458.44,279.57,453,279.57Z"/>
  <path d="M494.39,254.27a1.34,1.34,0,0,1-.33,0,3.06,3.06,0,0,1-2.25-1.06c-3.58-3.84-2.69-17.4-2.65-18a.5.5,0,1,1,1,.07c0,.13-.91,13.7,2.38,17.22a2.12,2.12,0,0,0,1.58.75.39.39,0,0,1,.15,0,1.21,1.21,0,0,0,.91-.29c.69-.5,1.91-2.11,2.27-7.25a.51.51,0,0,1,.54-.46.5.5,0,0,1,.46.53c-.31,4.29-1.23,7-2.75,8A2.36,2.36,0,0,1,494.39,254.27Z"/>
  <path d="M435.48,302.58s0,14.17-1.68,22.82c0,0,36.74,2.5,51.55-18.08C485.35,307.32,457.93,317.66,435.48,302.58Z" fill="#040200"/>
  <path d="M428.35,457.88l-8.42,8a2.42,2.42,0,0,0-.39,3c3.16,5.09,13.61,19.87,29.2,21.27a2.45,2.45,0,0,0,2.15-.89l5.66-7a2.41,2.41,0,0,0-1-3.77,49.07,49.07,0,0,1-23.46-20.1A2.43,2.43,0,0,0,428.35,457.88Z" fill="#84a1e5"/>
  <path d="M449,490.69h-.28c-16-1.43-26.68-16.82-29.59-21.51a2.93,2.93,0,0,1,.47-3.66l8.43-8a2.9,2.9,0,0,1,2.38-.77,3,3,0,0,1,2.14,1.4A48.24,48.24,0,0,0,455.75,478a2.85,2.85,0,0,1,1.74,2,2.9,2.9,0,0,1-.55,2.58l-5.66,7A2.92,2.92,0,0,1,449,490.69Zm-19-33a1.9,1.9,0,0,0-1.31.53l-8.43,8a1.93,1.93,0,0,0-.31,2.41c2.85,4.59,13.33,19.65,28.83,21a2,2,0,0,0,1.71-.7l5.66-7a1.91,1.91,0,0,0-.78-3,49.22,49.22,0,0,1-23.7-20.3,2,2,0,0,0-1.42-.93Z"/>
  <path d="M737.15,448.27s-1.89-43.36,2.87-64.81a21.69,21.69,0,0,1,5-9.73c9.7-10.92,39.84-44.2,65.43-65.67,0,0-24-5-46.62,8.66v14.65l-5-11.65s-28,16.65-25.31,62.27l1.33,44Z" fill="#f6c34c"/>
  <path d="M736.66,448.32,734.33,426,733,382c-2.65-45.39,25.27-62.55,25.56-62.72L759,319l4.26,9.94v-12.5l.24-.15c22.55-13.6,46.74-8.77,47-8.72l1,.21-.79.67c-25.79,21.63-56.56,55.69-65.37,65.61a21.28,21.28,0,0,0-4.86,9.51c-4.7,21.14-2.87,64.24-2.86,64.68Zm21.92-127.86c-3.68,2.5-27,20-24.59,61.51l1.33,44,1,9.72c-.19-14.55.07-38.23,3.19-52.31a22.31,22.31,0,0,1,5.09-10c8.73-9.83,39-43.33,64.65-65-4.82-.74-25.48-3-45,8.63v16.81Z"/>
  <path d="M732,455.42l0-3.95a19.06,19.06,0,0,0-5.69-13.8l-65.86-64.73s31.67-4,46.74,8.61l.31,17.22,5.22-13.53s28.29,12,25.83,70.11Z" fill="#f6c34c"/>
  <path d="M731.47,455.92l0-4.45A18.64,18.64,0,0,0,726,438l-66.6-65.45,1-.13c1.31-.16,32.07-3.88,47.13,8.72l.17.15L708,396.2l4.49-11.62.48.2c.28.12,28.58,12.8,26.13,70.59l0,.47Zm-69.92-82.6,65.11,64a19.68,19.68,0,0,1,5.84,14.17l0,3.43,5.59-.06c2.08-52.55-21.45-67-25.08-68.92l-6,15.4-.35-19.54C693.43,370.9,667.11,372.79,661.55,373.32Z"/>
  <path d="M747.48,455.3l3.6-29.45a10,10,0,0,1,2.61-5.61c9.44-10.09,46.7-49.62,68.39-67.55,0,0-25-2.33-47.29,9l-.67,15.65-5-12s-24.31,13.66-25,61.28l0,28.7Z" fill="#f6c34c"/>
  <path d="M743.67,455.82l0-29.2c.66-47.37,25-61.58,25.23-61.71l.49-.28,4.35,10.43.58-13.69.26-.14c22.18-11.25,47.31-9.06,47.56-9l1.21.11-.94.77c-21.42,17.72-57.72,56.15-68.33,67.51a9.4,9.4,0,0,0-2.48,5.33l-3.66,29.89Zm25.22-89.74c-3.4,2.26-23.64,17.51-24.24,60.55l0,28.19,2.36,0,3.55-29a10.51,10.51,0,0,1,2.75-5.89c10.47-11.2,45.88-48.71,67.46-66.79-5.27-.28-26.45-.69-45.52,8.88l-.75,17.61Z"/>
  <polygon points="699.36 524.03 741.33 533.96 783.44 524.03 783.44 519.92 699.56 519.92 699.36 524.03" fill="#040200"/>
  <path d="M784.61,484.4a43.47,43.47,0,0,1-35.77,42.78h0a44.23,44.23,0,0,1-7.68.68,43.46,43.46,0,0,1-32.52-72.29l47.08-.33,17.55-.13A43.33,43.33,0,0,1,784.61,484.4Z" fill="#84a1e5"/>
  <path d="M741.15,528.36a44,44,0,0,1-32.9-73.13l.15-.16h.22l64.86-.46.15.16a44,44,0,0,1-24.7,72.9h-.1A43.19,43.19,0,0,1,741.15,528.36Zm-32.3-72.3a43,43,0,0,0,32.3,71.3,43.88,43.88,0,0,0,7.59-.67A43,43,0,0,0,773,455.61Z"/>
  <rect x="694.77" y="503.83" width="9.24" height="137.03" rx="3.97" fill="#040200"/>
  <rect x="736.2" y="503.83" width="9.24" height="137.03" rx="3.97" fill="#040200"/>
  <rect x="778.31" y="503.83" width="9.24" height="137.03" rx="3.97" fill="#040200"/>
  <g opacity="0.2">
    <path d="M784.61,484.4a43.47,43.47,0,0,1-35.77,42.78c29.69-28.69,8.26-69.36,6.87-71.94l17.55-.13A43.33,43.33,0,0,1,784.61,484.4Z"/>
  </g>
  <path d="M379.26,216.93a34.19,34.19,0,0,0,5.88-18.85c0-23.94-26.28-43.35-58.69-43.35s-58.67,19.41-58.67,43.35,26.26,43.34,58.67,43.34c15.71,0,30-4.54,40.48-12l20.22,5.13Z" fill="#fff"/>
  <path d="M326.45,241.92c-32.63,0-59.17-19.67-59.17-43.84s26.54-43.85,59.17-43.85,59.19,19.67,59.19,43.85a34.55,34.55,0,0,1-5.81,18.9L388,235.3,367,230C356.05,237.68,341.65,241.92,326.45,241.92Zm0-86.69c-32.08,0-58.17,19.22-58.17,42.85s26.09,42.84,58.17,42.84c15.08,0,29.35-4.23,40.19-11.9l.19-.13,19.44,4.93-7.58-16.94.16-.23a33.64,33.64,0,0,0,5.79-18.57C384.64,174.45,358.54,155.23,326.45,155.23Z"/>
  <path d="M279.75,193.44a1,1,0,0,1,1-1.06h0a1.07,1.07,0,0,1,1.09,1.06h0v11.43a1.07,1.07,0,0,1-1.07,1.07h0a1.06,1.06,0,0,1-1.06-1.06h0Z" fill="#84a1e5"/>
  <path d="M285.09,196.77a1.63,1.63,0,0,0,1.38-1.73,1.38,1.38,0,0,1-1.1-1.31v-.21a1.25,1.25,0,0,1,1.21-1.29h.1c.85,0,1.37.66,1.37,1.71v.19a3.79,3.79,0,0,1-.95,2.75,2.84,2.84,0,0,1-1.81.84.53.53,0,0,1-.6-.46.28.28,0,0,1,0-.09A.57.57,0,0,1,285.09,196.77Z" fill="#84a1e5"/>
  <path d="M301.64,193.44v11.43a1.1,1.1,0,0,1-1.09,1.07,1.06,1.06,0,0,1-1.06-1.06h0v-8.15l-2.75,3.88a1,1,0,0,1-.87.44h0a1.11,1.11,0,0,1-.89-.44l-2.75-3.88v8.15a1.08,1.08,0,0,1-2.15,0h0V193.44a1.08,1.08,0,0,1,1.06-1.06h0a1,1,0,0,1,.84.44l3.85,5.36,3.86-5.36a1.08,1.08,0,0,1,.88-.44h0A1.1,1.1,0,0,1,301.64,193.44Z" fill="#84a1e5"/>
  <path d="M311.72,202.57a1,1,0,0,1,1.38-.14,6.23,6.23,0,0,0,3.7,1.49,4.1,4.1,0,0,0,2.42-.72,1.71,1.71,0,0,0,.84-1.37,1.12,1.12,0,0,0-.18-.62,1.86,1.86,0,0,0-.57-.58,7.51,7.51,0,0,0-2.66-.91h0a10.71,10.71,0,0,1-2.49-.76,4.1,4.1,0,0,1-1.81-1.51,3.08,3.08,0,0,1-.45-1.59,3.58,3.58,0,0,1,1.55-2.83,5.83,5.83,0,0,1,3.35-1,7.74,7.74,0,0,1,4.23,1.54,1,1,0,0,1,.27,1.38,1,1,0,0,1-1.32.32l-.05,0A5.73,5.73,0,0,0,316.8,194a3.7,3.7,0,0,0-2.16.66,1.52,1.52,0,0,0-.74,1.22.85.85,0,0,0,.13.54,2.14,2.14,0,0,0,.53.51,6.48,6.48,0,0,0,2.42.85h0a10.86,10.86,0,0,1,2.67.82,4.48,4.48,0,0,1,1.94,1.61,3.15,3.15,0,0,1,.46,1.64,3.73,3.73,0,0,1-1.62,3,5.93,5.93,0,0,1-3.58,1.1,8.2,8.2,0,0,1-5-1.92A1,1,0,0,1,311.72,202.57Z" fill="#84a1e5"/>
  <path d="M335.76,194.06a7.16,7.16,0,0,1,1.95,4.9,7,7,0,0,1-1.95,4.9,6.3,6.3,0,0,1-4.63,2.08,6.5,6.5,0,0,1-4.75-2.08,7,7,0,0,1-1.91-4.9,7.12,7.12,0,0,1,1.91-4.9,6.48,6.48,0,0,1,4.75-2.06A6.33,6.33,0,0,1,335.76,194.06Zm-.26,4.9a5,5,0,0,0-1.31-3.38,4.08,4.08,0,0,0-3.06-1.38,4.23,4.23,0,0,0-3.14,1.38,5,5,0,0,0-1.37,3.38,4.82,4.82,0,0,0,1.37,3.37,4.12,4.12,0,0,0,5.83.37,4.31,4.31,0,0,0,.37-.37,4.9,4.9,0,0,0,1.31-3.3Z" fill="#84a1e5"/>
  <path d="M350.5,204.33a1.09,1.09,0,0,1-.69,1.38h-.42a1.43,1.43,0,0,1-.76-.22,1.85,1.85,0,0,1-.62-.68,5.13,5.13,0,0,1-.4-2.32,1.6,1.6,0,0,0-.23-.83,1.82,1.82,0,0,0-.58-.56,3.64,3.64,0,0,0-1.09-.47h-2.28v4.13a1.08,1.08,0,0,1-1.08,1.07h0a1.05,1.05,0,0,1-1.06-1.06h0V193.33a1,1,0,0,1,1-1.06h3.5a4.13,4.13,0,0,1,4.13,4.13h0a4.14,4.14,0,0,1-1.52,3.18,2.91,2.91,0,0,1,.68.72,3.68,3.68,0,0,1,.64,2.09,6.18,6.18,0,0,0,.07,1.14A1.06,1.06,0,0,1,350.5,204.33Zm-2.75-7.79a2,2,0,0,0-2-2h-2.4v4h2.38a2,2,0,0,0,2-2v0Z" fill="#84a1e5"/>
  <path d="M362.6,204.33a1.07,1.07,0,0,1-.65,1.37h-.45a1.46,1.46,0,0,1-.76-.22,1.74,1.74,0,0,1-.61-.68,5.15,5.15,0,0,1-.42-2.32,1.51,1.51,0,0,0-.23-.83,1.56,1.56,0,0,0-.58-.56,3.4,3.4,0,0,0-1.09-.47h-2.28v4.13a1.07,1.07,0,0,1-1.08,1.07h0a1.05,1.05,0,0,1-1.06-1.06h0V193.33a1,1,0,0,1,1-1.06h3.5a4.13,4.13,0,0,1,2.64,7.34,3.27,3.27,0,0,1,.68.71,3.81,3.81,0,0,1,.63,2.1,4.87,4.87,0,0,0,.08,1.14A1,1,0,0,1,362.6,204.33Zm-2.75-7.79a2,2,0,0,0-2-2h-2.4v4h2.38a2,2,0,0,0,2-2v0Z" fill="#84a1e5"/>
  <path d="M374.69,194.2l-4,5.51v5.21a1.08,1.08,0,0,1-1.05,1.08h0a1.1,1.1,0,0,1-1.06-1.08v-5.21l-3.94-5.51a1.05,1.05,0,0,1,1.7-1.24l3.3,4.53L373,193a1.06,1.06,0,1,1,1.72,1.24Z" fill="#84a1e5"/>
</svg>